<?xml version="1.0" encoding="UTF-8" standalone="no" ?>
<!DOCTYPE svg PUBLIC "-//W3C//DTD SVG 1.1//EN" "http://www.w3.org/Graphics/SVG/1.1/DTD/svg11.dtd">
<svg xmlns="http://www.w3.org/2000/svg" xmlns:xlink="http://www.w3.org/1999/xlink" version="1.1" width="1080" height="1080" viewBox="0 0 1080 1080" xml:space="preserve">
<desc>Created with Fabric.js 5.2.4</desc>
<defs>
</defs>
<g transform="matrix(1 0 0 1 540 540)" id="78a5a4f2-99e0-4c7c-adda-10354b83499d"  >
<rect style="stroke: none; stroke-width: 1; stroke-dasharray: none; stroke-linecap: butt; stroke-dashoffset: 0; stroke-linejoin: miter; stroke-miterlimit: 4; fill: rgb(255,255,255); fill-rule: nonzero; opacity: 1; visibility: hidden;" vector-effect="non-scaling-stroke"  x="-540" y="-540" rx="0" ry="0" width="1080" height="1080" />
</g>
<g transform="matrix(1 0 0 1 540 540)" id="0e298b86-5f8c-4b9d-a787-c7460d44dbf9"  >
</g>
<g transform="matrix(1 0 0 1 540 540)"  >
<g style="" vector-effect="non-scaling-stroke"   >
		<g transform="matrix(0.13 0 0 -0.13 -316.68 -0.06)"  >
<path style="stroke: none; stroke-width: 1; stroke-dasharray: none; stroke-linecap: butt; stroke-dashoffset: 0; stroke-linejoin: miter; stroke-miterlimit: 4; fill: rgb(255,255,255); fill-rule: nonzero; opacity: 1;" vector-effect="non-scaling-stroke"  transform=" translate(-1499.93, -1659.08)" d="M 2121 2730 C 2097 2725 2055 2708 2027 2692 C 1939 2642 1925 2616 1860 2384 C 1828 2269 1765 2045 1720 1885 C 1675 1726 1616 1514 1589 1415 C 1534 1217 1510 1137 1505 1142 C 1503 1144 1472 1247 1436 1370 C 1400 1494 1340 1701 1302 1830 C 1264 1959 1200 2175 1161 2310 C 1122 2445 1085 2567 1078 2583 C 1060 2628 978 2695 915 2715 C 787 2755 597 2715 550 2638 C 530 2605 530 2591 530 1631 L 530 658 L 562 626 C 620 568 757 569 811 627 L 835 652 L 838 1376 C 840 2055 841 2100 858 2100 C 867 2100 885 2103 897 2106 C 920 2112 919 2117 1040 1720 C 1066 1635 1126 1439 1175 1285 C 1223 1131 1286 927 1315 832 C 1344 737 1376 650 1387 638 C 1416 606 1455 590 1507 590 C 1602 590 1626 618 1676 785 C 1957 1724 2068 2091 2075 2098 C 2077 2100 2094 2098 2114 2095 L 2149 2088 L 2152 1376 C 2154 821 2158 660 2168 643 C 2189 606 2238 586 2311 586 C 2392 586 2439 610 2457 660 C 2472 703 2475 2532 2460 2595 C 2454 2621 2439 2646 2415 2666 C 2358 2717 2211 2748 2121 2730 z" stroke-linecap="round" />
</g>
		<g transform="matrix(0.13 0 0 -0.13 -35.8 0.24)"  >
<path style="stroke: none; stroke-width: 1; stroke-dasharray: none; stroke-linecap: butt; stroke-dashoffset: 0; stroke-linejoin: miter; stroke-miterlimit: 4; fill: rgb(255,255,255); fill-rule: nonzero; opacity: 1;" vector-effect="non-scaling-stroke"  transform=" translate(-3606.5, -1656.85)" d="M 3540 2733 C 3387 2716 3358 2693 3306 2545 C 3287 2490 3174 2148 3055 1785 C 2936 1422 2809 1037 2774 929 C 2739 822 2710 720 2710 704 C 2710 688 2717 664 2726 651 C 2751 616 2836 580 2895 580 C 2953 580 2983 597 3006 643 C 3015 660 3101 915 3197 1209 C 3564 2338 3601 2450 3608 2450 C 3613 2450 3628 2411 3644 2363 C 3659 2314 3727 2106 3795 1900 C 3863 1694 3984 1324 4065 1078 C 4195 680 4215 628 4241 605 C 4294 561 4403 575 4468 634 C 4499 663 4503 673 4503 711 C 4502 740 4447 923 4342 1240 C 4254 1507 4116 1927 4035 2174 C 3851 2736 3861 2721 3655 2733 C 3611 2735 3559 2735 3540 2733 z" stroke-linecap="round" />
</g>
		<g transform="matrix(0.13 0 0 -0.13 146.33 -0.26)"  >
<path style="stroke: none; stroke-width: 1; stroke-dasharray: none; stroke-linecap: butt; stroke-dashoffset: 0; stroke-linejoin: miter; stroke-miterlimit: 4; fill: rgb(255,255,255); fill-rule: nonzero; opacity: 1;" vector-effect="non-scaling-stroke"  transform=" translate(-4972.51, -1660.59)" d="M 4925 2734 C 4878 2722 4850 2706 4833 2681 C 4816 2656 4815 2601 4815 1660 C 4815 870 4818 660 4828 643 C 4874 562 5075 567 5117 651 C 5127 669 5130 897 5130 1658 C 5130 2735 5133 2682 5071 2714 C 5040 2730 4957 2741 4925 2734 z" stroke-linecap="round" />
</g>
		<g transform="matrix(0.13 0 0 -0.13 326.33 0)"  >
<path style="stroke: none; stroke-width: 1; stroke-dasharray: none; stroke-linecap: butt; stroke-dashoffset: 0; stroke-linejoin: miter; stroke-miterlimit: 4; fill: rgb(255,255,255); fill-rule: nonzero; opacity: 1;" vector-effect="non-scaling-stroke"  transform=" translate(-6322.44, -1658.62)" d="M 6232 2729 C 6143 2718 6104 2703 6077 2671 C 6052 2641 6044 2617 5662 1455 C 5416 708 5420 719 5427 688 C 5442 628 5528 580 5621 580 C 5662 580 5672 584 5698 615 C 5731 652 5709 589 6129 1880 C 6229 2185 6313 2442 6316 2450 C 6324 2469 6328 2456 6630 1530 C 6910 672 6921 642 6957 606 C 6992 571 7064 570 7136 604 C 7196 632 7220 662 7220 707 C 7220 724 7167 902 7101 1102 C 6681 2387 6607 2608 6588 2638 C 6554 2694 6504 2719 6409 2730 C 6316 2741 6321 2741 6232 2729 z" stroke-linecap="round" />
</g>
		<g transform="matrix(0.13 0 0 -0.13 -36.39 55.81)"  >
<path style="stroke: none; stroke-width: 1; stroke-dasharray: none; stroke-linecap: butt; stroke-dashoffset: 0; stroke-linejoin: miter; stroke-miterlimit: 4; fill: rgb(255,255,255); fill-rule: nonzero; opacity: 1;" vector-effect="non-scaling-stroke"  transform=" translate(-3602.06, -1240.02)" d="M 3510 1418 C 3414 1369 3373 1244 3422 1151 C 3435 1126 3462 1093 3483 1076 C 3515 1050 3532 1045 3590 1042 C 3651 1038 3665 1041 3704 1064 C 3844 1146 3833 1354 3686 1424 C 3637 1447 3563 1444 3510 1418 z" stroke-linecap="round" />
</g>
		<g transform="matrix(0.13 0 0 -0.13 326.04 55.81)"  >
<path style="stroke: none; stroke-width: 1; stroke-dasharray: none; stroke-linecap: butt; stroke-dashoffset: 0; stroke-linejoin: miter; stroke-miterlimit: 4; fill: rgb(255,255,255); fill-rule: nonzero; opacity: 1;" vector-effect="non-scaling-stroke"  transform=" translate(-6320.32, -1240.03)" d="M 6235 1424 C 6189 1401 6142 1350 6129 1312 C 6123 1293 6120 1252 6122 1220 C 6127 1151 6155 1104 6215 1065 C 6251 1041 6263 1039 6327 1042 C 6389 1045 6404 1049 6437 1076 C 6562 1175 6541 1365 6398 1425 C 6350 1444 6273 1444 6235 1424 z" stroke-linecap="round" />
</g>
</g>
</g>
</svg>